<?xml version="1.0" encoding="UTF-8"?>
<svg width="2001px" height="809px" viewBox="0 0 2001 809" version="1.1" xmlns="http://www.w3.org/2000/svg" xmlns:xlink="http://www.w3.org/1999/xlink">
    <title>Group</title>
    <g id="Patterns" stroke="none" stroke-width="1" fill="none" fill-rule="evenodd">
        <g id="Artboard" transform="translate(0.000000, 28.000000)" fill-rule="nonzero">
            <g id="Group" transform="translate(0.000000, -27.034652)">
                <g id="Group-2" transform="translate(0.000000, 27.034652)">
                    <path d="M5,484 L101.5,484 C154.79502,484 198,440.57116 198,387 L198,387 L101.5,387 C48.20498,387 5,430.42884 5,484 L5,484 Z" id="Shape" fill="#2D3652"></path>
                    <path d="M5,0 L5,193.5 C5,300.36618 91.40996,387 198,387 L198,387 L198,193.5 C198,86.63382 111.59004,0 5,0 L5,0 Z" id="Shape" fill="#5E72E4"></path>
                    <path d="M101,194 L101,290.012151 C101,343.5766 144.42884,387 198,387 L198,387 L198,290.987849 C198,237.42146 154.57116,194 101,194 L101,194 Z" id="Shape" fill="#2D3652"></path>
                    <path d="M586,194 L392,194 C284.85768,194 198,280.40996 198,387 L198,387 L392,387 C499.14232,387 586,300.59004 586,194 L586,194 Z" id="Shape" fill="#2D3652"></path>
                    <path d="M392,290 L295.987849,290 C242.4234,290 199,333.42884 199,387 L199,387 L295.012151,387 C348.57854,387 392,343.57116 392,290 L392,290 Z" id="Shape" fill="#F0F1F1"></path>
                    <path d="M582,1 L776,1 C883.14232,1 970,87.40996 970,194 L970,194 L776,194 C668.85768,194 582,107.59004 582,1 L582,1 Z" id="Shape" fill="#2D3652" transform="translate(776.000000, 97.500000) scale(-1, 1) translate(-776.000000, -97.500000) "></path>
                    <path d="M116,531.5 C116,515.208133 129.208133,502 145.5,502 L145.5,502 C161.791867,502 175,515.208133 175,531.5 L175,531.5 C175,547.791867 161.791867,561 145.5,561 L145.5,561 C129.208133,561 116,547.791867 116,531.5 L116,531.5 Z" id="Shape" fill="#5E72E4"></path>
                    <path d="M911,222.5 C911,206.207259 924.207259,193 940.5,193 C956.792741,193 970,206.207259 970,222.5 C970,238.792741 956.792741,252 940.5,252 C924.207259,252 911,238.792741 911,222.5 Z" id="Shape" fill="#5E72E4"></path>
                    <path d="M195,485 C195,430.87656 239.10042,387 293.5,387 L293.5,387 C347.89958,387 392,430.87656 392,485 L392,485 C392,539.12344 347.89958,583 293.5,583 L195,583 L195,485 Z" id="Shape" fill="#5E72E4"></path>
                    <path d="M195,532.99901 C195,504.833427 217.833427,482 246.00099,482 L246.00099,482 C274.166573,482 297,504.833427 297,532.99901 L297,532.99901 C297,561.166573 274.166573,584 246.00099,584 L195,584 L195,532.99901 Z" id="Shape" fill="#FB6340"></path>
                    <path d="M584,97.5 C584,44.20498 540.79502,1 487.5,1 L487.5,1 C434.20498,1 391,44.20498 391,97.5 L391,97.5 C391,150.79502 434.20498,194 487.5,194 L584,194 L584,97.5 Z" id="Shape" fill="#FB6340"></path>
                    <path d="M584,143.999029 C584,116.385713 561.614287,94 533.999029,94 L533.999029,94 C506.385713,94 484,116.385713 484,143.999029 L484,143.999029 C484,171.614287 506.385713,194 533.999029,194 L584,194 L584,143.999029 Z" id="Shape" fill="#5E72E4"></path>
                    <path d="M199,96.5 C199,149.79502 242.20498,193 295.5,193 L295.5,193 C348.79502,193 392,149.79502 392,96.5 L392,96.5 C392,43.20498 348.79502,0 295.5,0 L199,0 L199,96.5 Z" id="Shape" fill="#11CDEF"></path>
                    <path d="M198,50.0009706 C198,77.6142871 220.385713,100 248.000971,100 L248.000971,100 C275.614287,100 298,77.6142871 298,50.0009706 L298,50.0009706 C298,22.3857129 275.614287,0 248.000971,0 L198,0 L198,50.0009706 Z" id="Shape" fill="#2D3652"></path>
                    <path d="M732,45 L732,143.5 C732,197.89958 687.676116,242 633,242 L633,143.5 C633,89.10042 677.323884,45 732,45 Z" id="Shape" fill="#5E72E4" transform="translate(682.500000, 143.500000) scale(1, -1) rotate(-90.000000) translate(-682.500000, -143.500000) "></path>
                    <path d="M195,682 C195,736.12344 151.3473,780 97.5,780 C43.6527,780 0,736.12344 0,682 C0,627.87656 43.6527,584 97.5,584 L195,584 L195,682 Z" id="Shape" fill="#FB6340"></path>
                </g>
                <g id="Group-2-Copy" transform="translate(1108.086024, 396.000000) rotate(-179.000000) translate(-1108.086024, -396.000000) translate(222.086024, 16.000000)">
                    <path d="M644.858751,754.935008 C536.059591,754.935008 447.858751,666.734168 447.858751,557.935008 L644.858751,557.935008 L644.858751,754.935008 Z" id="Shape" fill="#5E72E4" transform="translate(546.358751, 656.435008) scale(-1, 1) rotate(1.000000) translate(-546.358751, -656.435008) "></path>
                    <path d="M349.575262,28.1525586 L349.575262,126.652559 C349.575262,181.052139 305.251387,225.152559 250.575262,225.152559 L250.575262,225.152559 L250.575262,126.652559 C250.575262,72.2529786 294.899157,28.1525586 349.575262,28.1525586 L349.575262,28.1525586 Z" id="Shape" fill="#11CDEF"></path>
                    <path d="M448.293095,557.939944 L544.793095,557.939944 C598.088115,557.939944 641.293095,514.511104 641.293095,460.939944 L641.293095,460.939944 L544.793095,460.939944 C491.498075,460.939944 448.293095,504.368784 448.293095,557.939944 L448.293095,557.939944 Z" id="Shape" fill="#2D3652" transform="translate(544.793095, 509.439944) scale(1, -1) translate(-544.793095, -509.439944) "></path>
                    <path d="M326.986688,368.063247 L421.486688,368.063247 C473.677148,368.063247 515.986688,325.977567 515.986688,274.063247 L515.986688,274.063247 L421.486688,274.063247 C369.296228,274.063247 326.986688,316.148927 326.986688,368.063247 L326.986688,368.063247 Z" id="Shape" fill="#11CDEF" transform="translate(421.486688, 321.063247) scale(-1, -1) rotate(21.000000) translate(-421.486688, -321.063247) "></path>
                    <path d="M8.43788684,176.940619 L8.43788684,370.440619 C8.43788684,477.306799 94.8478468,563.940619 201.437887,563.940619 L201.437887,563.940619 L201.437887,370.440619 C201.437887,263.574439 115.027927,176.940619 8.43788684,176.940619 L8.43788684,176.940619 Z" id="Shape" fill="#5E72E4"></path>
                    <path d="M104.437887,370.940619 L104.437887,466.95277 C104.437887,520.51722 147.866727,563.940619 201.437887,563.940619 L201.437887,563.940619 L201.437887,467.928468 C201.437887,414.362079 158.009047,370.940619 104.437887,370.940619 L104.437887,370.940619 Z" id="Shape" fill="#2D3652"></path>
                    <path d="M1029.84084,555.882307 L835.840837,555.882307 C728.698517,555.882307 641.840837,642.739987 641.840837,749.882307 L641.840837,749.882307 L835.840837,749.882307 C942.983157,749.882307 1029.84084,663.024627 1029.84084,555.882307 L1029.84084,555.882307 Z" id="Shape" fill="#F0F1F1" transform="translate(835.840837, 652.882307) scale(1, -1) translate(-835.840837, -652.882307) "></path>
                    <path d="M834.316057,460.571173 L738.303906,460.571173 C684.739457,460.571173 641.316057,504.000013 641.316057,557.571173 L641.316057,557.571173 L737.328208,557.571173 C790.894597,557.571173 834.316057,514.142333 834.316057,460.571173 L834.316057,460.571173 Z" id="Shape" fill="#2D3652"></path>
                    <path d="M836,649 L932.509623,649 C986.351609,649 1030,692.42884 1030,746 L1030,746 L933.490377,746 C879.646442,746 836,702.57116 836,649 L836,649 Z" id="Shape" fill="#11CDEF"></path>
                    <path d="M612.073953,438.740117 C612.073953,422.44825 625.282086,409.240117 641.573953,409.240117 L641.573953,409.240117 C657.86582,409.240117 671.073953,422.44825 671.073953,438.740117 L671.073953,438.740117 C671.073953,455.031984 657.86582,468.240117 641.573953,468.240117 L641.573953,468.240117 C625.282086,468.240117 612.073953,455.031984 612.073953,438.740117 L612.073953,438.740117 Z" id="Shape" fill="#5E72E4"></path>
                    <path d="M221.462981,292.552406 C221.462981,276.812806 234.223381,264.052406 249.962981,264.052406 L249.962981,264.052406 C265.702581,264.052406 278.462981,276.812806 278.462981,292.552406 L278.462981,292.552406 C278.462981,308.292006 265.702581,321.052406 249.962981,321.052406 L249.962981,321.052406 C234.223381,321.052406 221.462981,308.292006 221.462981,292.552406 L221.462981,292.552406 Z" id="Shape" fill="#11CDEF"></path>
                    <path d="M613,697.5 C613,681.207259 626.207259,668 642.5,668 C658.792741,668 672,681.207259 672,697.5 C672,713.792741 658.792741,727 642.5,727 C626.207259,727 613,713.792741 613,697.5 Z" id="Shape" fill="#5E72E4"></path>
                    <path d="M1712.28583,97.4867978 C1712.28583,81.194057 1725.49309,67.9867978 1741.78583,67.9867978 C1758.07857,67.9867978 1771.28583,81.194057 1771.28583,97.4867978 C1771.28583,113.779539 1758.07857,126.986798 1741.78583,126.986798 C1725.49309,126.986798 1712.28583,113.779539 1712.28583,97.4867978 Z" id="Shape-Copy" fill="#5E72E4"></path>
                    <path d="M200.784469,464.981881 C200.784469,410.858441 244.884889,366.981881 299.284469,366.981881 L299.284469,366.981881 C353.684049,366.981881 397.784469,410.858441 397.784469,464.981881 L397.784469,464.981881 C397.784469,519.105321 353.684049,562.981881 299.284469,562.981881 L200.784469,562.981881 L200.784469,464.981881 Z" id="Shape" fill="#5E72E4"></path>
                    <path d="M200.784469,512.980891 C200.784469,484.815308 223.617896,461.981881 251.785459,461.981881 L251.785459,461.981881 C279.951042,461.981881 302.784469,484.815308 302.784469,512.980891 L302.784469,512.980891 C302.784469,541.148454 279.951042,563.981881 251.785459,563.981881 L200.784469,563.981881 L200.784469,512.980891 Z" id="Shape" fill="#FB6340"></path>
                    <path d="M449.879953,659.364482 C449.879953,604.136482 405.107953,559.364482 349.879953,559.364482 L349.879953,559.364482 C294.651953,559.364482 249.879953,604.136482 249.879953,659.364482 L249.879953,659.364482 C249.879953,714.592482 294.651953,759.364482 349.879953,759.364482 L449.879953,759.364482 L449.879953,659.364482 Z" id="Shape" fill="#FB6340"></path>
                    <path d="M449.727886,707.52702 C449.727886,678.809171 426.670602,655.528029 398.226886,655.528029 L398.226886,655.528029 C369.78517,655.528029 346.727886,678.809171 346.727886,707.52702 L346.727886,707.52702 C346.727886,736.246888 369.78517,759.528029 398.226886,759.528029 L449.727886,759.528029 L449.727886,707.52702 Z" id="Shape" fill="#5E72E4"></path>
                    <path d="M1217.70927,450.333318 C1217.70927,503.628338 1260.91425,546.833318 1314.20927,546.833318 L1314.20927,546.833318 C1367.50429,546.833318 1410.70927,503.628338 1410.70927,450.333318 L1410.70927,450.333318 C1410.70927,397.038298 1367.50429,353.833318 1314.20927,353.833318 L1217.70927,353.833318 L1217.70927,450.333318 Z" id="Shape" fill="#11CDEF" transform="translate(1314.209268, 450.333318) scale(-1, -1) translate(-1314.209268, -450.333318) "></path>
                    <path d="M1311.19492,496.690796 C1311.19492,524.304113 1333.58063,546.689826 1361.19589,546.689826 L1361.19589,546.689826 C1388.8092,546.689826 1411.19492,524.304113 1411.19492,496.690796 L1411.19492,496.690796 C1411.19492,469.075539 1388.8092,446.689826 1361.19589,446.689826 L1311.19492,446.689826 L1311.19492,496.690796 Z" id="Shape" fill="#2D3652" transform="translate(1361.194917, 496.689826) scale(-1, -1) translate(-1361.194917, -496.689826) "></path>
                    <path d="M0.349356046,95.5598969 C0.349356046,42.8171569 43.106616,0.0598968805 95.849356,0.0598968805 L95.849356,0.0598968805 C148.592096,0.0598968805 191.349356,42.8171569 191.349356,95.5598969 L191.349356,95.5598969 C191.349356,148.302637 148.592096,191.059897 95.849356,191.059897 L95.849356,191.059897 C43.106616,191.059897 0.349356046,148.302637 0.349356046,95.5598969 L0.349356046,95.5598969 Z" id="Shape" fill="#FB6340"></path>
                    <path d="M44.349356,97.0598969 C44.349356,67.789503 68.0789622,44.0598969 97.349356,44.0598969 L97.349356,44.0598969 C126.61975,44.0598969 150.349356,67.789503 150.349356,97.0598969 L150.349356,97.0598969 C150.349356,126.330291 126.61975,150.059897 97.349356,150.059897 L97.349356,150.059897 C68.0789622,150.059897 44.349356,126.330291 44.349356,97.0598969 L44.349356,97.0598969 Z" id="Shape" fill="#2D3652"></path>
                    <path d="M898.662866,418.526058 C898.662866,383.180138 927.316946,354.526058 962.662866,354.526058 L962.662866,354.526058 C998.008786,354.526058 1026.66287,383.180138 1026.66287,418.526058 L1026.66287,418.526058 C1026.66287,453.871978 998.008786,482.526058 962.662866,482.526058 L962.662866,482.526058 C927.316946,482.526058 898.662866,453.871978 898.662866,418.526058 L898.662866,418.526058 Z" id="Shape" fill="#5E72E4"></path>
                    <path d="M927.662866,417.526058 C927.662866,398.196552 943.33336,382.526058 962.662866,382.526058 L962.662866,382.526058 C981.992371,382.526058 997.662866,398.196552 997.662866,417.526058 L997.662866,417.526058 C997.662866,436.855563 981.992371,452.526058 962.662866,452.526058 L962.662866,452.526058 C943.33336,452.526058 927.662866,436.855563 927.662866,417.526058 L927.662866,417.526058 Z" id="Shape" fill="#2D3652"></path>
                    <path d="M200.882591,661.666804 C200.882591,715.790244 157.229891,759.666804 103.382591,759.666804 C49.5352909,759.666804 5.88259093,715.790244 5.88259093,661.666804 C5.88259093,607.543364 49.5352909,563.666804 103.382591,563.666804 L200.882591,563.666804 L200.882591,661.666804 Z" id="Shape" fill="#FB6340"></path>
                </g>
            </g>
        </g>
    </g>
</svg>